<svg xmlns="http://www.w3.org/2000/svg" xmlns:svg="http://www.w3.org/2000/svg" xmlns:xlink="http://www.w3.org/1999/xlink" id="svg2" width="50" height="50" version="1.0"><defs id="defs4"><linearGradient id="linearGradient3537"><stop id="stop3539" offset="0" style="stop-color:#fff;stop-opacity:1"/><stop id="stop3541" offset="1" style="stop-color:#fff;stop-opacity:0"/></linearGradient><linearGradient id="linearGradient3486"><stop id="stop3488" offset="0" style="stop-color:#000;stop-opacity:1"/><stop id="stop3492" offset="1" style="stop-color:#000;stop-opacity:0"/></linearGradient><linearGradient id="linearGradient3444"><stop style="stop-color:#fff;stop-opacity:1" id="stop3446" offset="0"/><stop id="stop3452" offset=".5" style="stop-color:#fff;stop-opacity:0"/><stop style="stop-color:#fff;stop-opacity:0" id="stop3448" offset="1"/></linearGradient><filter id="filter3478"><feGaussianBlur id="feGaussianBlur3480" stdDeviation="4.363"/></filter><filter id="filter3522"><feGaussianBlur id="feGaussianBlur3524" stdDeviation="7.724"/></filter><filter id="filter3555"><feGaussianBlur id="feGaussianBlur3557" stdDeviation="2.116"/></filter><linearGradient id="linearGradient2440" x1="523.37" x2="523.37" y1="199.073" y2="491.561" gradientUnits="userSpaceOnUse" xlink:href="#linearGradient3444"/><linearGradient id="linearGradient2442" x1="523.37" x2="523.37" y1="199.073" y2="491.561" gradientUnits="userSpaceOnUse" xlink:href="#linearGradient3486"/><linearGradient id="linearGradient2444" x1="230.456" x2="526.987" y1="258.333" y2="258.333" gradientUnits="userSpaceOnUse" xlink:href="#linearGradient3537"/><linearGradient id="linearGradient2467" x1="230.456" x2="526.987" y1="258.333" y2="258.333" gradientUnits="userSpaceOnUse" xlink:href="#linearGradient3537"/><linearGradient id="linearGradient2465" x1="523.37" x2="523.37" y1="199.073" y2="491.561" gradientUnits="userSpaceOnUse" xlink:href="#linearGradient3486"/><linearGradient id="linearGradient2463" x1="523.37" x2="523.37" y1="199.073" y2="491.561" gradientUnits="userSpaceOnUse" xlink:href="#linearGradient3444"/><linearGradient id="linearGradient3535" x1="230.456" x2="526.987" y1="258.333" y2="258.333" gradientUnits="userSpaceOnUse" xlink:href="#linearGradient3537"/><linearGradient id="linearGradient3484" x1="523.37" x2="523.37" y1="199.073" y2="491.561" gradientUnits="userSpaceOnUse" xlink:href="#linearGradient3486"/><linearGradient id="linearGradient3450" x1="523.37" x2="523.37" y1="199.073" y2="491.561" gradientUnits="userSpaceOnUse" xlink:href="#linearGradient3444"/><linearGradient id="linearGradient2587"><stop id="stop2589" offset="0" style="stop-color:#fff;stop-opacity:1"/><stop style="stop-color:#fff;stop-opacity:0" id="stop2591" offset=".5"/><stop id="stop2593" offset="1" style="stop-color:#fff;stop-opacity:0"/></linearGradient><linearGradient id="linearGradient2581"><stop style="stop-color:#000;stop-opacity:1" id="stop2583" offset="0"/><stop style="stop-color:#000;stop-opacity:0" id="stop2585" offset="1"/></linearGradient><linearGradient id="linearGradient2575"><stop style="stop-color:#fff;stop-opacity:1" id="stop2577" offset="0"/><stop style="stop-color:#fff;stop-opacity:0" id="stop2579" offset="1"/></linearGradient><linearGradient id="linearGradient2642" x1="523.37" x2="523.37" y1="199.073" y2="491.561" gradientUnits="userSpaceOnUse" xlink:href="#linearGradient3444"/><linearGradient id="linearGradient2644" x1="523.37" x2="523.37" y1="199.073" y2="491.561" gradientUnits="userSpaceOnUse" xlink:href="#linearGradient3486"/><linearGradient id="linearGradient2646" x1="230.456" x2="526.987" y1="258.333" y2="258.333" gradientUnits="userSpaceOnUse" xlink:href="#linearGradient3537"/><linearGradient id="linearGradient2661" x1="523.37" x2="523.37" y1="199.073" y2="491.561" gradientUnits="userSpaceOnUse" xlink:href="#linearGradient3444"/><linearGradient id="linearGradient2663" x1="523.37" x2="523.37" y1="199.073" y2="491.561" gradientUnits="userSpaceOnUse" xlink:href="#linearGradient3486"/><linearGradient id="linearGradient2665" x1="230.456" x2="526.987" y1="258.333" y2="258.333" gradientUnits="userSpaceOnUse" xlink:href="#linearGradient3537"/></defs><metadata id="metadata7"/><g id="layer1" transform="translate(-353.37656,-318.61163)"><g id="g2433" transform="matrix(6.6781971e-2,0,0,6.6959686e-2,342.08656,330.59848)"><rect id="rect2650" width="296.531" height="296.531" x="230.456" y="195.001" rx="20" ry="20" style="fill:#1ea3f9;fill-opacity:1;fill-rule:evenodd;stroke:#000;stroke-width:3;stroke-linecap:round;stroke-linejoin:round;stroke-miterlimit:4;stroke-dasharray:none;stroke-opacity:1"/><rect style="opacity:.94527366;fill:url(#linearGradient2440);fill-opacity:1;fill-rule:evenodd;stroke:none;stroke-width:2.94291234;stroke-linecap:round;stroke-linejoin:round;stroke-miterlimit:4;stroke-dasharray:none;stroke-opacity:1;filter:url(#filter3478)" id="rect3442" width="289.298" height="292.487" x="234.073" y="199.073" rx="19.512" ry="19.727"/><rect id="rect3482" width="289.298" height="292.487" x="234.073" y="199.073" rx="19.512" ry="19.727" transform="matrix(1,0,0,-0.4905991,0,589.22589)" style="opacity:.7761194;fill:url(#linearGradient2442);fill-opacity:1;fill-rule:evenodd;stroke:none;stroke-width:2.94291234;stroke-linecap:round;stroke-linejoin:round;stroke-miterlimit:4;stroke-dasharray:none;stroke-opacity:1;filter:url(#filter3522)"/><path id="rect3526" d="M 250.45604,195.00127 L 506.98689,195.00127 C 518.06689,195.00127 526.98689,203.92127 526.98689,215.00127 L 526.80938,321.40374 C 327.27502,327.77728 230.45604,215.00127 230.45604,215.00127 C 230.45604,203.92127 239.37604,195.00127 250.45604,195.00127 z" style="opacity:.89054727;fill:url(#linearGradient2444);fill-opacity:1;fill-rule:evenodd;stroke:none;stroke-width:3;stroke-linecap:round;stroke-linejoin:round;stroke-miterlimit:4;stroke-opacity:1;filter:url(#filter3555)"/><rect style="fill:none;fill-opacity:1;fill-rule:evenodd;stroke:#000;stroke-width:3;stroke-linecap:round;stroke-linejoin:round;stroke-miterlimit:4;stroke-dasharray:none;stroke-opacity:1" id="rect3559" width="296.531" height="296.531" x="230.456" y="195.001" rx="20" ry="20"/></g><g id="g2615" transform="matrix(0.3993812,0,0,0.4000091,287.9359,166.39437)"><g id="g2456" transform="matrix(0.1669277,0,0,0.1669277,190.73693,410.7314)"><rect style="fill:#203746;fill-opacity:1;fill-rule:evenodd;stroke:#000;stroke-width:3;stroke-linecap:round;stroke-linejoin:round;stroke-miterlimit:4;stroke-dasharray:none;stroke-opacity:1" id="rect2618" width="296.531" height="296.531" x="230.456" y="195.001" rx="20" ry="20"/><rect id="rect2620" width="289.298" height="292.487" x="234.073" y="199.073" rx="19.512" ry="19.727" style="opacity:.43781098;fill:url(#linearGradient2463);fill-opacity:1;fill-rule:evenodd;stroke:none;stroke-width:2.94291234;stroke-linecap:round;stroke-linejoin:round;stroke-miterlimit:4;stroke-dasharray:none;stroke-opacity:1;filter:url(#filter3478)"/><rect style="opacity:.43781098;fill:url(#linearGradient2465);fill-opacity:1;fill-rule:evenodd;stroke:none;stroke-width:2.94291234;stroke-linecap:round;stroke-linejoin:round;stroke-miterlimit:4;stroke-dasharray:none;stroke-opacity:1;filter:url(#filter3522)" id="rect2622" width="289.298" height="292.487" x="234.073" y="199.073" rx="19.512" ry="19.727" transform="matrix(1,0,0,-0.4905991,0,589.22589)"/><path style="opacity:.12601624;fill:url(#linearGradient2467);fill-opacity:1;fill-rule:evenodd;stroke:none;stroke-width:3;stroke-linecap:round;stroke-linejoin:round;stroke-miterlimit:4;stroke-opacity:1;filter:url(#filter3555)" id="path2624" d="M 250.45604,195.00127 L 506.98689,195.00127 C 518.06689,195.00127 526.98689,203.92127 526.98689,215.00127 L 526.80938,321.40374 C 327.27502,327.77728 230.45604,215.00127 230.45604,215.00127 C 230.45604,203.92127 239.37604,195.00127 250.45604,195.00127 z"/><rect id="rect2626" width="296.531" height="296.531" x="230.456" y="195.001" rx="20" ry="20" style="fill:none;fill-opacity:1;fill-rule:evenodd;stroke:#000;stroke-width:3;stroke-linecap:round;stroke-linejoin:round;stroke-miterlimit:4;stroke-dasharray:none;stroke-opacity:1"/></g></g><g id="g2628" transform="matrix(0.3993812,0,0,0.4000091,265.9359,145.39437)"><g id="g2630" transform="matrix(0.1669277,0,0,0.1669277,190.73693,410.7314)"><rect style="fill:#203746;fill-opacity:1;fill-rule:evenodd;stroke:#000;stroke-width:3;stroke-linecap:round;stroke-linejoin:round;stroke-miterlimit:4;stroke-dasharray:none;stroke-opacity:1" id="rect2632" width="296.531" height="296.531" x="230.456" y="195.001" rx="20" ry="20"/><rect id="rect2634" width="289.298" height="292.487" x="234.073" y="199.073" rx="19.512" ry="19.727" style="opacity:.43781098;fill:url(#linearGradient2642);fill-opacity:1;fill-rule:evenodd;stroke:none;stroke-width:2.94291234;stroke-linecap:round;stroke-linejoin:round;stroke-miterlimit:4;stroke-dasharray:none;stroke-opacity:1;filter:url(#filter3478)"/><rect style="opacity:.43781098;fill:url(#linearGradient2644);fill-opacity:1;fill-rule:evenodd;stroke:none;stroke-width:2.94291234;stroke-linecap:round;stroke-linejoin:round;stroke-miterlimit:4;stroke-dasharray:none;stroke-opacity:1;filter:url(#filter3522)" id="rect2636" width="289.298" height="292.487" x="234.073" y="199.073" rx="19.512" ry="19.727" transform="matrix(1,0,0,-0.4905991,0,589.22589)"/><path style="opacity:.12601624;fill:url(#linearGradient2646);fill-opacity:1;fill-rule:evenodd;stroke:none;stroke-width:3;stroke-linecap:round;stroke-linejoin:round;stroke-miterlimit:4;stroke-opacity:1;filter:url(#filter3555)" id="path2638" d="M 250.45604,195.00127 L 506.98689,195.00127 C 518.06689,195.00127 526.98689,203.92127 526.98689,215.00127 L 526.80938,321.40374 C 327.27502,327.77728 230.45604,215.00127 230.45604,215.00127 C 230.45604,203.92127 239.37604,195.00127 250.45604,195.00127 z"/><rect id="rect2640" width="296.531" height="296.531" x="230.456" y="195.001" rx="20" ry="20" style="fill:none;fill-opacity:1;fill-rule:evenodd;stroke:#000;stroke-width:3;stroke-linecap:round;stroke-linejoin:round;stroke-miterlimit:4;stroke-dasharray:none;stroke-opacity:1"/></g></g><g id="g2648" transform="matrix(6.6781971e-2,0,0,6.6959686e-2,364.08656,309.59848)"><rect id="rect2651" width="296.531" height="296.531" x="230.456" y="195.001" rx="20" ry="20" style="fill:#1ea3f9;fill-opacity:1;fill-rule:evenodd;stroke:#000;stroke-width:3;stroke-linecap:round;stroke-linejoin:round;stroke-miterlimit:4;stroke-dasharray:none;stroke-opacity:1"/><rect style="opacity:.94527366;fill:url(#linearGradient2661);fill-opacity:1;fill-rule:evenodd;stroke:none;stroke-width:2.94291234;stroke-linecap:round;stroke-linejoin:round;stroke-miterlimit:4;stroke-dasharray:none;stroke-opacity:1;filter:url(#filter3478)" id="rect2653" width="289.298" height="292.487" x="234.073" y="199.073" rx="19.512" ry="19.727"/><rect id="rect2655" width="289.298" height="292.487" x="234.073" y="199.073" rx="19.512" ry="19.727" transform="matrix(1,0,0,-0.4905991,0,589.22589)" style="opacity:.7761194;fill:url(#linearGradient2663);fill-opacity:1;fill-rule:evenodd;stroke:none;stroke-width:2.94291234;stroke-linecap:round;stroke-linejoin:round;stroke-miterlimit:4;stroke-dasharray:none;stroke-opacity:1;filter:url(#filter3522)"/><path id="path2657" d="M 250.45604,195.00127 L 506.98689,195.00127 C 518.06689,195.00127 526.98689,203.92127 526.98689,215.00127 L 526.80938,321.40374 C 327.27502,327.77728 230.45604,215.00127 230.45604,215.00127 C 230.45604,203.92127 239.37604,195.00127 250.45604,195.00127 z" style="opacity:.89054727;fill:url(#linearGradient2665);fill-opacity:1;fill-rule:evenodd;stroke:none;stroke-width:3;stroke-linecap:round;stroke-linejoin:round;stroke-miterlimit:4;stroke-opacity:1;filter:url(#filter3555)"/><rect style="fill:none;fill-opacity:1;fill-rule:evenodd;stroke:#000;stroke-width:3;stroke-linecap:round;stroke-linejoin:round;stroke-miterlimit:4;stroke-dasharray:none;stroke-opacity:1" id="rect2659" width="296.531" height="296.531" x="230.456" y="195.001" rx="20" ry="20"/></g></g></svg>